<?xml version="1.0" encoding="UTF-8" standalone="no"?>
<svg
   xmlns="http://www.w3.org/2000/svg"
   viewBox="0 0 257.21951 200"
   height="200"
   width="257.21951">
  <defs>
    <radialGradient id="fadeGrad">
      <stop offset="0%" stop-opacity="1" stop-color="white"/>
      <stop offset="50%" stop-opacity="0.1" stop-color="white"/>
    </radialGradient>
    <mask id="fade" maskContentUnits="objectBoundingBox">
      <rect width="1" height="1" fill="url(#fadeGrad)"/>
    </mask>
  </defs>
  <g
     transform="translate(-64.795653,-60.382153)"
    >
    <path
      mask="url(#fade)"
       style="fill:white"
       d="m 110.25034,98.26696 -6.47348,-7.25826 c 5.157,0.1548 13.50499,3.31164 29.07479,9.31678 -14.96237,-6.08874 -23.16608,-9.48694 -27.17951,-12.80032 l 19.61019,-0.68484 -21.07993,-0.736608 c -0.6501,-0.756766 -1.10595,-1.528688 -1.39339,-2.346026 l 7.44133,-8.344108 -7.77087,6.929892 c -0.33515,-2.66215 0.71073,-5.895238 2.30679,-10.549227 -1.92728,4.266625 -3.33583,7.254945 -5.249635,9.007627 L 98.823651,60.382153 98.074185,81.841018 c -0.764624,0.403084 -1.619072,0.659642 -2.604324,0.771922 l -8.072898,-7.199362 6.472914,7.258814 c -5.156438,-0.15484 -13.50386,-3.312192 -29.074224,-9.317463 14.962932,6.089483 23.165514,9.487623 27.179506,12.800317 l -19.60962,0.685074 21.079922,0.736 c 0.650098,0.75788 1.105392,1.5298 1.392268,2.34664 l -7.440766,8.344 7.770866,-6.92996 c 0.335714,2.66228 -0.711292,5.89468 -2.306782,10.54924 1.927276,-4.26664 3.335824,-7.25434 5.249066,-9.0069 l 0.713538,20.41948 0.750026,-21.45942 c 0.764063,-0.40348 1.617953,-0.6601 2.603763,-0.77192 l 8.0729,7.19948" />
  </g>
</svg>
